<svg width="6" id="Layer_1" viewBox="0 0 174 64" class="css-1g4ri0h css-1culvhu0"><path fill="#00AAE7" class="st0" d="M23.5 15.6c0-2.1-.5-4.4-1.9-5.1-1.6-.8-3.4.3-4.3 1.1-2.5 2.3-3.8 6.5-4.6 10.6-.9 4.3-1.4 9.2-.9 13.9 6.7-3.4 11.8-10.6 11.7-20.5zm-9.9 28.8c2.1 5.9 6.6 10.2 14.8 9.4 5.3-.5 8.8-3.3 11.2-7 .7-1.1 1.9-2.6 2.1-4l.1-.1c.1-2-.1-3.9.1-5.7 1-12.6 5.5-21.6 12.6-28.4 3.9-3.7 9.1-6.8 15.5-8 1.6-.3 3.5-.5 5.4-.5 4.6-.1 7.4 2.6 6.9 7.6-.1.8-.3 1.8-1 2.1-.8.3-2.1 0-2.8-.1-7.1-.7-12.1 2.1-15.8 5.3-4.4 3.8-7.1 9-8.8 15.5-2 8-2.5 20.9 4.9 23 4.8 1.4 7.6-2.2 9.1-5.5.3-.7.8-1.5.9-2.1.2-1.1 0-2.4 0-3.7V24c0-1.2 0-2.4-.1-3.5S68 18 68.4 17c1-2.5 5.5-2 7.6-1 1.3.7 2.4 1.7 3.1 3.2.6 1.5.5 3.6.5 5.7v18.7c0 4.7.1 8.1 2.7 9.7 1.2.7 3.3.4 4.7 1.1.9.4 1.9 1.3 1.8 3-.3 4.5-3.7 7-8.6 6.4-4.4-.6-7.3-2.9-9.2-6-.9.8-1.7 1.7-2.6 2.5-2.5 2.2-6.4 4.2-11.5 3.6-6-.7-9.6-4-12-8.3-.8.7-1.5 1.4-2.2 2.1-3.8 3.4-8.6 5.6-15.4 6.2-8.6.7-14.6-2.7-18.8-7C2.9 51.3-.5 42.4.1 31 .6 20.5 4.3 11.9 9.7 6.2 12.3 3.4 16.1.4 21.1.1c6.4-.3 10.3 3.1 12.1 7.6 2 4.9 1.5 11.9-.1 16.9-1.5 4.8-4.2 9.1-7.4 12.3-3.3 3.3-7.2 6.1-12.1 7.5zm126.3 0c1.4 3.7 3.7 6.8 7.1 8.5 4.1 2 9.1.6 11.9-1.6 4.3-3.3 6-9.5 6.1-17.3 0-2.6-.5-5.1.4-7.1.5-1.2 1.5-2 2.8-2.2 2.3-.3 4 1.2 4.6 2.8.5 1.3.7 3 .8 4.5.6 5.1 0 10.1-1.1 14.3-1.6 5.7-4.3 10-8.2 13-2 1.6-4.3 2.8-7.1 3.6-2.8.8-6.1 1.4-9.5 1-6.1-.7-10.4-3.8-13.7-7.5-3.3-3.7-5.7-8.7-6.9-14.3-1.3-5.9-1-13.3.4-19.1 1.9-8.3 5.8-15.5 12-19.9 2.2-1.5 4.9-2.8 7.9-2.9 6.4-.3 10.3 3.1 12.1 7.6 2 4.8 1.6 11.7-.1 16.9-1.5 4.8-4.2 9-7.4 12.3-3.2 3.2-7.2 5.9-12.1 7.4zm9.8-26.1c.3-2.9.3-6.8-1.8-7.8-.9-.5-2.2-.2-3 .2-1.9.9-3.2 3.2-4.1 5.4-2.2 5.3-3.2 13.2-2.7 20 6.2-3.3 10.8-9.1 11.6-17.8zm-53.6-5.7c-1.5 0-3.1.3-4.6.1-3.6-.3-6-4.1-5.9-8.3 0-1.7.6-3.3 2-3.7.9-.2 1.8.3 2.7.4 1.7.2 3.5.1 5.4 0 3.5-.1 7.2-.2 10.7-.4 5.4-.2 11.1-.4 15.9.8 1 .3 2.1.5 2.9.8 1.6.8 3.9 2.6 3.8 4.9 0 .9-1 2.2-1.5 2.9-1.8 2.5-4.1 4.7-6.1 6.8-5.6 6.1-10.8 12-15.8 18.7-1.2 1.6-2.4 3.3-3.5 5.2-1.4 2.3-4 7.4-.6 9.2 1.2.6 3.1.6 5.1.6h16.8c2.1 0 3.6.1 4.9.8 1.2.7 2 1.6 2.6 3 .4.9 1 2.5.9 4.6 0 1.4-.5 3.6-2.2 3.8-.6.1-1.3-.2-2-.4-1.8-.4-4.6-.2-6.8-.2h-9.3c-6.8 0-12-.2-16.4-2.2-2-.9-3.7-3.1-4.7-5-1.1-2.1-1.7-5-1.3-7.8.3-2.6 1.3-4.8 2.3-7C96.2 29.4 103 21 110 12.2c-5 .1-9.1.4-13.9.4z"></path></svg>