<?xml version="1.0" encoding="utf-8"?>
<!-- Generator: Adobe Illustrator 16.0.0, SVG Export Plug-In . SVG Version: 6.00 Build 0)  -->
<!DOCTYPE svg PUBLIC "-//W3C//DTD SVG 1.1//EN" "http://www.w3.org/Graphics/SVG/1.1/DTD/svg11.dtd">
<svg version="1.1" id="Layer_1" xmlns="http://www.w3.org/2000/svg" xmlns:xlink="http://www.w3.org/1999/xlink" x="0px" y="0px"
	 width="256px" height="94.177px" viewBox="0 0 256 94.177" enable-background="new 0 0 256 94.177" xml:space="preserve">
<path fill="#00AAE7" d="M34.572,22.864c0-3.087-0.75-6.486-2.814-7.508c-2.358-1.189-5.005,0.438-6.32,1.606
	c-3.691,3.399-5.611,9.573-6.779,15.622c-1.335,6.341-2.065,13.556-1.335,20.481C27.191,48.06,34.719,37.444,34.572,22.864z
	 M19.974,65.288c3.108,8.675,9.74,15.017,21.815,13.848c7.799-0.75,12.952-4.88,16.499-10.344c1.021-1.585,2.794-3.796,3.086-5.883
	l0.146-0.124c0.147-2.963-0.146-5.757,0.147-8.385c1.479-18.583,8.091-31.827,18.56-41.859c5.735-5.443,13.411-10.012,22.82-11.785
	c2.356-0.438,5.17-0.729,7.967-0.729c6.779-0.146,10.885,3.837,10.155,11.2c-0.144,1.168-0.439,2.648-1.479,3.087
	c-1.167,0.438-3.087,0-4.109-0.147c-10.469-1.021-17.833,3.088-23.277,7.801c-6.485,5.611-10.469,13.265-12.973,22.837
	c-2.941,11.763-3.671,30.785,7.217,33.872c7.089,2.046,11.199-3.211,13.41-8.093c0.438-1.042,1.188-2.209,1.335-3.087
	c0.292-1.625,0-3.544,0-5.463V35.233c0-1.773,0-3.525-0.147-5.152c-0.144-1.627-1.041-3.692-0.458-5.15
	c1.481-3.692,8.113-2.963,11.199-1.482c1.92,1.043,3.546,2.503,4.57,4.714c0.874,2.21,0.729,5.297,0.729,8.405v27.51
	c0,6.967,0.144,11.973,3.982,14.309c1.773,1.042,4.861,0.584,6.926,1.626c1.335,0.585,2.794,1.918,2.647,4.422
	c-0.438,6.633-5.444,10.304-12.658,9.427c-6.488-0.877-10.763-4.296-13.558-8.843c-1.334,1.168-2.502,2.503-3.837,3.713
	c-3.671,3.212-9.426,6.174-16.934,5.255c-8.824-1.002-14.143-5.882-17.667-12.179c-1.188,0.998-2.212,2.043-3.232,3.086
	c-5.611,5.006-12.682,8.217-22.692,9.093c-12.661,1.043-21.504-3.962-27.698-10.303C4.228,75.465-0.778,62.325,0.099,45.557
	c0.729-15.476,6.193-28.156,14.14-36.541c3.838-4.129,9.426-8.551,16.79-8.989c9.426-0.438,15.184,4.567,17.831,11.2
	c2.941,7.216,2.211,17.52-0.145,24.882c-2.211,7.07-6.196,13.41-10.91,18.124C32.946,59.071,27.191,63.243,19.974,65.288z
	 M206.016,65.288c2.085,5.422,5.422,10.011,10.427,12.514c6.092,2.921,13.434,0.875,17.562-2.336
	c6.297-4.881,8.801-14.015,8.968-25.487c0-3.838-0.75-7.528,0.586-10.469c0.748-1.773,2.251-2.941,4.128-3.253
	c3.38-0.439,5.882,1.771,6.799,4.129c0.753,1.918,1.001,4.421,1.168,6.633c0.877,7.508,0,14.891-1.626,21.065
	c-2.378,8.385-6.341,14.723-12.056,19.147c-2.961,2.335-6.34,4.128-10.47,5.295c-4.129,1.212-8.968,2.046-13.973,1.461
	c-9.012-1.002-15.351-5.588-20.189-11.013c-4.881-5.464-8.428-12.846-10.178-21.064c-1.921-8.677-1.502-19.605,0.581-28.156
	c2.798-12.223,8.553-22.817,17.688-29.304c3.255-2.21,7.217-4.13,11.638-4.276c9.386-0.438,15.144,4.569,17.813,11.2
	c2.919,7.07,2.335,17.229-0.168,24.883c-2.168,7.049-6.173,13.264-10.887,18.145C219.112,59.071,213.229,63.076,206.016,65.288z
	 M220.447,26.828c0.418-4.255,0.418-10.011-2.67-11.472c-1.335-0.75-3.252-0.291-4.419,0.293c-2.756,1.313-4.673,4.712-6.008,7.946
	c-3.255,7.8-4.756,19.458-4.005,29.47C212.522,48.186,219.28,39.654,220.447,26.828z M141.506,18.443
	c-2.211,0-4.566,0.438-6.778,0.147c-5.297-0.438-8.843-6.049-8.697-12.223c0-2.502,0.897-4.859,2.939-5.444
	c1.334-0.312,2.669,0.439,3.984,0.584c2.503,0.292,5.152,0.145,7.946,0c5.173-0.146,10.637-0.292,15.767-0.584
	c7.97-0.312,16.352-0.605,23.402,1.168c1.501,0.438,3.088,0.73,4.295,1.189c2.378,1.168,5.715,3.817,5.591,7.216
	c0,1.315-1.459,3.234-2.212,4.256c-2.668,3.69-6.005,6.922-9.01,10.031c-8.214,8.969-15.85,17.667-23.231,27.53
	c-1.795,2.336-3.546,4.839-5.176,7.675c-2.042,3.38-5.879,10.888-0.874,13.558c1.751,0.875,4.588,0.875,7.509,0.875h24.777
	c3.087,0,5.256,0.125,7.174,1.168c1.753,1.043,2.963,2.378,3.838,4.421c0.585,1.293,1.501,3.671,1.335,6.798
	c0,2.045-0.75,5.259-3.252,5.592c-0.878,0.123-1.921-0.333-2.922-0.585c-2.67-0.583-6.8-0.334-10.012-0.334h-13.722
	c-10.011,0-17.666-0.249-24.153-3.253c-2.941-1.294-5.444-4.547-6.924-7.341c-1.626-3.087-2.502-7.342-1.92-11.513
	c0.458-3.797,1.92-7.05,3.399-10.304c7.07-15.892,17.081-28.26,27.386-41.212C154.624,18.004,148.575,18.443,141.506,18.443z"/>
</svg>
