<?xml version="1.0" encoding="utf-8"?>
<!-- Generator: Adobe Illustrator 16.0.0, SVG Export Plug-In . SVG Version: 6.00 Build 0)  -->
<!DOCTYPE svg PUBLIC "-//W3C//DTD SVG 1.1//EN" "http://www.w3.org/Graphics/SVG/1.1/DTD/svg11.dtd">
<svg version="1.1" id="Layer_1" xmlns="http://www.w3.org/2000/svg" xmlns:xlink="http://www.w3.org/1999/xlink" x="0px" y="0px"
	 width="12px" height="18px" viewBox="0 0 12 18" enable-background="new 0 0 12 18" xml:space="preserve">
<path fill="none" stroke="#000000" stroke-width="1.5" d="M6,16.634c0.816-1.265,1.6-2.55,2.35-3.854
	c0.349-0.611,0.674-1.205,0.974-1.775C10.55,8.666,11.25,6.842,11.25,5.87c0-2.824-2.348-5.12-5.25-5.12
	c-2.904,0-5.25,2.296-5.25,5.12c0,0.972,0.7,2.796,1.927,5.134c0.3,0.57,0.625,1.164,0.975,1.775
	C4.399,14.085,5.183,15.371,6,16.634z M7.75,6c0,0.966-0.783,1.75-1.75,1.75C5.034,7.75,4.25,6.966,4.25,6S5.034,4.25,6,4.25
	C6.967,4.25,7.75,5.034,7.75,6z"/>
</svg>
